<svg width="128" height="128" viewBox="0 0 128 128" fill="none" xmlns="http://www.w3.org/2000/svg">
<circle cx="64" cy="64" r="64" fill="#7ea6c9"/>
<path d="M82.6308 58.8388C80.2392 58.8388 69.6562 60.3937 65.5904 62.5467C67.7788 58.5876 69.3692 47.7747 69.3692 45.3705C69.3692 42.4042 66.9656 40 64 40C61.0344 40 58.6308 42.4042 58.6308 45.3705C58.6308 47.7867 60.2212 58.5996 62.4096 62.5467C58.3438 60.3937 47.7608 58.8388 45.3692 58.8388C42.4036 58.8388 40 61.243 40 64.2093C40 67.1757 42.4036 69.5799 45.3692 69.5799C47.701 69.5799 57.8774 68.0967 62.1226 66.0154C60.0777 70.3454 58.6308 80.321 58.6308 82.6295C58.6308 85.5958 61.0344 88 64 88C66.9656 88 69.3692 85.5958 69.3692 82.6295C69.3692 80.321 67.9103 70.3454 65.8774 66.0154C70.1226 68.0967 80.299 69.5799 82.6308 69.5799C85.5964 69.5799 88 67.1757 88 64.2093C88 61.243 85.5964 58.8388 82.6308 58.8388Z" fill="black"/>
<path d="M73.8444 15.5664C73.3657 15.4941 72.9638 15.3467 72.6386 15.124C72.3139 14.8985 72.0792 14.614 71.9346 14.2705C71.7899 13.927 71.75 13.5396 71.815 13.1082L72.5832 13.224C72.5161 13.6694 72.6015 14.0381 72.8393 14.3302C73.0799 14.6227 73.4493 14.8065 73.9475 14.8816C74.4012 14.9501 74.7793 14.9061 75.0818 14.7496C75.3871 14.5935 75.5649 14.3485 75.6152 14.0145C75.6542 13.7556 75.5926 13.5314 75.4305 13.3419C75.2683 13.1523 74.9715 12.968 74.5402 12.7891L73.8688 12.5128C73.2577 12.2612 72.8312 11.9833 72.5895 11.6793C72.3478 11.3752 72.2588 11.0117 72.3225 10.5886C72.3766 10.2295 72.5112 9.93103 72.7264 9.69306C72.9448 9.45273 73.2265 9.28315 73.5716 9.18434C73.9167 9.08552 74.3049 9.06866 74.7363 9.13374C75.3848 9.23157 75.8749 9.48341 76.2066 9.88928C76.5415 10.2928 76.6722 10.795 76.5988 11.396L75.8557 11.2838C75.8921 10.8908 75.7988 10.565 75.5759 10.3065C75.3534 10.0452 75.0306 9.88267 74.6075 9.81885C74.2039 9.75797 73.8578 9.80681 73.5692 9.96538C73.2838 10.1216 73.1179 10.3542 73.0713 10.6631C73.0349 10.9053 73.0997 11.1172 73.2659 11.2988C73.4354 11.4781 73.7369 11.6588 74.1706 11.8409L74.8498 12.1227C75.4339 12.3646 75.8499 12.6451 76.0979 12.9643C76.3459 13.2835 76.4372 13.6603 76.3718 14.0945C76.3177 14.4535 76.1755 14.7552 75.9451 14.9994C75.7176 15.244 75.4225 15.4173 75.0599 15.5191C74.7005 15.6186 74.2953 15.6344 73.8444 15.5664Z" fill="black"/>
<path d="M81.54 17.7632C80.9859 17.5921 80.5411 17.3104 80.2055 16.9181C79.8707 16.5231 79.658 16.0568 79.5674 15.5192C79.4804 14.9798 79.5297 14.4088 79.7154 13.8062C79.9027 13.1983 80.1838 12.6974 80.5585 12.3034C80.9341 11.9068 81.3709 11.641 81.869 11.5061C82.3707 11.3693 82.8985 11.3865 83.4525 11.5575C83.8721 11.687 84.2297 11.8888 84.5252 12.1626C84.8216 12.4338 85.0382 12.7585 85.175 13.1365C85.3153 13.5127 85.3571 13.9218 85.3004 14.3639L84.5581 14.1347C84.5964 13.6664 84.4956 13.267 84.2557 12.9367C84.0194 12.6045 83.682 12.3707 83.2436 12.2354C82.8214 12.105 82.425 12.0961 82.0546 12.2085C81.685 12.3183 81.3604 12.5304 81.0809 12.8447C80.8022 13.1564 80.5891 13.5516 80.4416 14.0304C80.2948 14.5065 80.2489 14.9519 80.3037 15.3665C80.3585 15.7812 80.5073 16.1394 80.7501 16.4411C80.9937 16.7402 81.3266 16.9549 81.7489 17.0853C82.1819 17.219 82.5905 17.217 82.9746 17.0793C83.3587 16.9416 83.669 16.6706 83.9055 16.2664L84.6438 16.4943C84.4427 16.8888 84.1796 17.2024 83.8546 17.4349C83.5296 17.6675 83.1666 17.8132 82.7656 17.872C82.3681 17.929 81.9595 17.8927 81.54 17.7632Z" fill="black"/>
<path d="M85.9053 19.6625L88.633 13.9935L90.7363 15.0073C91.3271 15.2921 91.7204 15.6723 91.9164 16.1479C92.1161 16.6222 92.0884 17.1245 91.8333 17.6546C91.6393 18.0579 91.3661 18.3465 91.0138 18.5204C90.664 18.6955 90.2766 18.7509 89.8514 18.6866L90.0016 21.6368L89.2028 21.2518L89.0795 18.4505C89.0618 18.4419 89.044 18.4334 89.0263 18.4248L87.6608 17.7667L86.5899 19.9924L85.9053 19.6625ZM87.9537 17.158L89.3572 17.8344C89.7502 18.0239 90.1059 18.0734 90.4242 17.9831C90.7463 17.8915 90.9903 17.6732 91.1563 17.3283C91.3223 16.9833 91.3388 16.6569 91.2058 16.3491C91.0753 16.0425 90.8135 15.7945 90.4205 15.605L89.0247 14.9323L87.9537 17.158Z" fill="black"/>
<path d="M94.3969 24.9967C93.9389 24.6842 93.6105 24.2914 93.4116 23.8183C93.2128 23.3453 93.1493 22.8385 93.2211 22.298C93.2946 21.7552 93.508 21.2244 93.8614 20.7057C94.218 20.1823 94.6345 19.7883 95.1109 19.5239C95.5889 19.2572 96.0842 19.13 96.5969 19.1424C97.1095 19.1549 97.5948 19.3174 98.0528 19.6299C98.5132 19.9441 98.8416 20.3368 99.0382 20.8083C99.237 21.2813 99.2997 21.7893 99.2262 22.3321C99.1544 22.8726 98.9402 23.4045 98.5836 23.9279C98.2302 24.4467 97.8145 24.8394 97.3365 25.1062C96.8601 25.3706 96.3655 25.4966 95.8529 25.4842C95.3426 25.4733 94.8573 25.3108 94.3969 24.9967ZM94.7963 24.4105C95.1102 24.6247 95.4531 24.7411 95.8252 24.7599C96.1989 24.7763 96.5709 24.6826 96.9414 24.4788C97.3118 24.2749 97.65 23.9485 97.9558 23.4996C98.2633 23.0483 98.4441 22.6128 98.4984 22.1932C98.5542 21.7713 98.5054 21.3904 98.352 21.0506C98.2002 20.7085 97.9674 20.4303 97.6535 20.2161C97.3396 20.002 96.9958 19.8867 96.6222 19.8702C96.2501 19.8515 95.878 19.9452 95.506 20.1513C95.1356 20.3552 94.7966 20.6827 94.4892 21.134C94.1833 21.583 94.0033 22.0173 93.949 22.4369C93.8948 22.8565 93.9436 23.2374 94.0954 23.5795C94.2488 23.9193 94.4824 24.1963 94.7963 24.4105Z" fill="black"/>
<path d="M98.0508 28.1282L102.328 23.5148L102.885 24.0319L99.067 28.15L101.288 30.2129L100.829 30.7083L98.0508 28.1282Z" fill="black"/>
<path d="M103.044 33.6227L107.961 29.6983L108.435 30.2927L104.046 33.7957L105.935 36.1666L105.407 36.588L103.044 33.6227Z" fill="black"/>
<path d="M111.026 48.3317L110.317 46.5236L116.172 44.2235L116.912 46.1103C117.135 46.6789 117.209 47.2121 117.136 47.7099C117.063 48.2103 116.85 48.6552 116.498 49.0445C116.148 49.4329 115.671 49.7459 115.066 49.9836C114.455 50.2234 113.887 50.3197 113.36 50.2725C112.836 50.2242 112.374 50.0367 111.974 49.7101C111.575 49.386 111.259 48.9266 111.026 48.3317ZM111.223 46.9841L111.636 48.0376C111.922 48.7661 112.339 49.2251 112.888 49.4147C113.44 49.6032 114.073 49.557 114.788 49.2761C115.496 48.9982 115.986 48.6061 116.259 48.0996C116.533 47.5958 116.535 46.9993 116.265 46.3101L115.821 45.1781L111.223 46.9841Z" fill="black"/>
<path d="M112.916 56.2124C112.793 55.6718 112.819 55.1605 112.995 54.6786C113.171 54.1966 113.469 53.7821 113.889 53.4349C114.312 53.087 114.83 52.8432 115.442 52.7034C116.059 52.5624 116.632 52.557 117.162 52.6873C117.693 52.817 118.143 53.0608 118.511 53.4186C118.878 53.7764 119.123 54.2256 119.247 54.7663C119.371 55.3097 119.344 55.8209 119.168 56.3001C118.992 56.7821 118.692 57.197 118.269 57.5448C117.849 57.892 117.33 58.1361 116.713 58.2771C116.101 58.4169 115.529 58.422 114.997 58.2923C114.468 58.162 114.02 57.9179 113.652 57.5601C113.285 57.205 113.04 56.7558 112.916 56.2124ZM113.608 56.0545C113.692 56.4249 113.864 56.7436 114.124 57.0105C114.387 57.2767 114.724 57.4611 115.134 57.5637C115.544 57.6663 116.014 57.6572 116.544 57.5362C117.076 57.4146 117.505 57.2185 117.83 56.9478C118.158 56.6766 118.381 56.3643 118.5 56.011C118.621 55.657 118.64 55.2947 118.555 54.9242C118.471 54.5538 118.297 54.2354 118.034 53.9692C117.774 53.7023 117.438 53.5179 117.025 53.4159C116.614 53.3133 116.143 53.3228 115.611 53.4444C115.081 53.5654 114.654 53.7612 114.329 54.0318C114.003 54.3024 113.78 54.6147 113.659 54.9687C113.54 55.3221 113.523 55.684 113.608 56.0545Z" fill="black"/>
<path d="M113.555 62.1666L119.7 59.9867L119.758 60.753L115.918 62.0614C115.395 62.2389 114.87 62.4039 114.342 62.5564C114.613 62.5897 114.884 62.6287 115.155 62.6732C115.43 62.7176 115.703 62.7648 115.975 62.815L119.968 63.5571L120.033 64.4328L116.195 65.7539C115.936 65.8438 115.677 65.9296 115.418 66.0111C115.162 66.0953 114.904 66.1767 114.644 66.2554C114.913 66.2918 115.179 66.331 115.445 66.3732C115.714 66.418 115.983 66.4642 116.251 66.5117L120.243 67.2285L120.301 68.0032L113.899 66.7559L113.832 65.8718L117.792 64.4697C118.004 64.3945 118.217 64.3235 118.432 64.2565C118.648 64.1896 118.861 64.1242 119.074 64.0602C118.854 64.0315 118.633 64.0001 118.411 63.966C118.188 63.9319 117.966 63.8935 117.746 63.8508L113.622 63.0592L113.555 62.1666Z" fill="black"/>
<path d="M113.395 68.4227L119.668 68.8932L119.603 69.7648L115.325 72.0436C115.202 72.1077 115.027 72.1963 114.801 72.3092C114.576 72.4221 114.347 72.5334 114.116 72.6431C114.335 72.6511 114.563 72.6611 114.8 72.6732C115.036 72.688 115.205 72.6994 115.309 72.7072L119.36 73.011L119.303 73.7688L113.03 73.2983L113.095 72.4183L116.897 70.3917C117.038 70.3148 117.254 70.2011 117.545 70.0507C117.838 69.9034 118.181 69.7315 118.574 69.5352C118.183 69.52 117.852 69.505 117.582 69.4904C117.315 69.4761 117.113 69.4637 116.976 69.4534L113.338 69.1805L113.395 68.4227Z" fill="black"/>
<path d="M108.543 86.4471L109.156 86.1797L109.656 87.3333C109.756 87.5632 109.856 87.802 109.955 88.0497C110.057 88.2984 110.154 88.5407 110.246 88.7764C110.288 88.6538 110.33 88.5312 110.372 88.4086C110.417 88.287 110.463 88.166 110.51 88.0454L112.092 84.0125L112.72 84.2595L111.139 88.2924C111.092 88.413 111.042 88.5325 110.989 88.651C110.939 88.7705 110.888 88.8895 110.836 89.0079C111.063 88.8978 111.298 88.7857 111.539 88.6718C111.783 88.5589 112.02 88.4523 112.249 88.3521L113.4 87.8469L113.667 88.46L110.1 90.0164L108.543 86.4471Z" fill="black"/>
<path d="M101.063 97.148C101.365 96.7694 101.693 96.4949 102.049 96.3246C102.406 96.1561 102.77 96.0951 103.139 96.1417C103.509 96.1882 103.864 96.3475 104.205 96.6197L103.721 97.2273C103.369 96.9463 103.007 96.8358 102.636 96.8957C102.262 96.9578 101.918 97.1859 101.604 97.58C101.319 97.9388 101.168 98.2884 101.152 98.6288C101.135 98.9714 101.258 99.2481 101.522 99.4588C101.726 99.6221 101.951 99.6809 102.196 99.6353C102.442 99.5896 102.749 99.4247 103.12 99.1405L103.694 98.697C104.218 98.2934 104.671 98.063 105.055 98.0057C105.439 97.9484 105.798 98.0532 106.133 98.3201C106.416 98.5466 106.607 98.8126 106.706 99.1181C106.805 99.4276 106.811 99.7565 106.724 100.105C106.637 100.453 106.458 100.798 106.186 101.139C105.777 101.652 105.314 101.951 104.797 102.035C104.281 102.124 103.781 101.986 103.297 101.621L103.765 101.033C104.087 101.262 104.416 101.344 104.751 101.28C105.089 101.218 105.391 101.02 105.657 100.685C105.912 100.366 106.042 100.042 106.049 99.7121C106.057 99.3867 105.938 99.1265 105.694 98.9316C105.503 98.7788 105.287 98.729 105.046 98.7821C104.807 98.8392 104.499 99.0101 104.125 99.2947L103.542 99.7421C103.041 100.127 102.59 100.347 102.19 100.402C101.79 100.458 101.418 100.348 101.075 100.074C100.791 99.8477 100.601 99.5736 100.504 99.2518C100.406 98.9322 100.404 98.5899 100.497 98.2247C100.59 97.8635 100.779 97.5046 101.063 97.148Z" fill="black"/>
<path d="M95.3159 102.721C95.7407 102.326 96.2068 102.082 96.714 101.987C97.2232 101.895 97.733 101.944 98.2435 102.134C98.7539 102.328 99.2234 102.657 99.6521 103.119C100.085 103.586 100.378 104.08 100.531 104.602C100.687 105.126 100.699 105.637 100.566 106.136C100.434 106.639 100.156 107.088 99.7307 107.483C99.4089 107.782 99.0557 107.991 98.671 108.11C98.2882 108.231 97.899 108.256 97.5034 108.186C97.1078 108.119 96.7328 107.951 96.3786 107.68L96.9479 107.152C97.334 107.419 97.73 107.532 98.1357 107.489C98.5413 107.45 98.9122 107.275 99.2484 106.963C99.5723 106.662 99.7781 106.323 99.8658 105.946C99.9555 105.57 99.9342 105.183 99.8018 104.784C99.6713 104.386 99.4358 104.004 99.0952 103.636C98.7565 103.271 98.394 103.008 98.0078 102.848C97.6215 102.689 97.2372 102.638 96.8547 102.698C96.4741 102.759 96.1219 102.94 95.7981 103.241C95.466 103.549 95.2636 103.904 95.1908 104.306C95.1181 104.708 95.1975 105.112 95.4291 105.52L94.863 106.045C94.622 105.674 94.4821 105.289 94.4433 104.891C94.4044 104.493 94.4597 104.106 94.6092 103.729C94.7585 103.356 94.9941 103.02 95.3159 102.721Z" fill="black"/>
<path d="M91.4904 105.557L95.0322 110.756L93.1036 112.072C92.5618 112.442 92.0362 112.593 91.5266 112.525C91.0164 112.46 90.5956 112.185 90.2644 111.699C90.0125 111.329 89.8993 110.948 89.9249 110.556C89.9482 110.165 90.094 109.801 90.3621 109.465L87.7343 108.12L88.4667 107.62L90.9523 108.914C90.9686 108.903 90.9849 108.892 91.0012 108.881L92.2532 108.026L90.8626 105.985L91.4904 105.557ZM92.6335 108.585L91.3466 109.463C90.9862 109.709 90.7655 109.992 90.6845 110.313C90.6028 110.638 90.6697 110.959 90.8852 111.275C91.1007 111.592 91.3749 111.769 91.7078 111.808C92.0383 111.848 92.3838 111.745 92.7442 111.499L94.0241 110.626L92.6335 108.585Z" fill="black"/>
<path d="M82.6295 110.252C83.129 110.011 83.6331 109.922 84.1419 109.987C84.6507 110.051 85.1209 110.249 85.5527 110.581C85.9856 110.916 86.3382 111.367 86.6104 111.932C86.885 112.503 87.0175 113.061 87.0081 113.606C86.9998 114.154 86.8621 114.647 86.595 115.085C86.3279 115.523 85.9446 115.862 85.445 116.103C84.943 116.345 84.4388 116.433 83.9326 116.368C83.4238 116.304 82.953 116.104 82.52 115.769C82.0883 115.437 81.7351 114.985 81.4605 114.415C81.1883 113.849 81.0564 113.292 81.0646 112.745C81.0741 112.2 81.2124 111.708 81.4795 111.27C81.7441 110.833 82.1274 110.494 82.6295 110.252ZM82.937 110.891C82.5947 111.056 82.3224 111.295 82.1201 111.608C81.919 111.924 81.814 112.293 81.8051 112.716C81.7962 113.139 81.9096 113.595 82.1451 114.085C82.3819 114.577 82.6683 114.951 83.0042 115.208C83.3414 115.467 83.6954 115.615 84.0661 115.652C84.438 115.692 84.7952 115.629 85.1375 115.464C85.4798 115.299 85.7515 115.059 85.9526 114.743C86.1549 114.43 86.2599 114.061 86.2676 113.635C86.2764 113.212 86.1625 112.754 85.9257 112.262C85.6902 111.773 85.4044 111.4 85.0685 111.143C84.7325 110.886 84.3786 110.738 84.0066 110.699C83.6359 110.662 83.2793 110.726 82.937 110.891Z" fill="black"/>
<path d="M78.0932 111.854L79.9461 117.866L79.2199 118.091L77.566 112.724L74.6694 113.618L74.4704 112.973L78.0932 111.854Z" fill="black"/>
<path d="M70.842 113.437L71.7789 119.657L71.0274 119.771L70.1911 114.218L67.1935 114.67L67.0929 114.002L70.842 113.437Z" fill="black"/>
<path d="M54.1208 113.001L56.0412 113.291L55.1044 119.512L53.1004 119.21C52.4964 119.119 51.9974 118.917 51.6033 118.604C51.2064 118.291 50.9275 117.884 50.7665 117.385C50.605 116.888 50.5727 116.318 50.6696 115.675C50.7672 115.026 50.9682 114.486 51.2724 114.053C51.5762 113.624 51.9696 113.317 52.4527 113.134C52.9329 112.95 53.489 112.906 54.1208 113.001ZM55.1891 113.846L54.0703 113.677C53.2965 113.56 52.6902 113.692 52.2515 114.073C51.8123 114.457 51.5355 115.028 51.421 115.788C51.3079 116.54 51.4023 117.16 51.7043 117.65C52.0035 118.139 52.5191 118.439 53.2511 118.549L54.4535 118.731L55.1891 113.846Z" fill="black"/>
<path d="M46.3551 110.699C46.885 110.863 47.3146 111.141 47.644 111.535C47.9734 111.928 48.1834 112.393 48.274 112.931C48.3637 113.471 48.3162 114.041 48.1313 114.641C47.9448 115.246 47.6628 115.746 47.2854 116.139C46.9071 116.535 46.4712 116.802 45.9777 116.941C45.4841 117.081 44.9724 117.068 44.4425 116.905C43.91 116.74 43.4804 116.462 43.1537 116.07C42.8242 115.676 42.6147 115.209 42.5249 114.669C42.4343 114.131 42.4823 113.56 42.6689 112.955C42.8537 112.355 43.1353 111.857 43.5135 111.461C43.8909 111.068 44.3264 110.802 44.82 110.663C45.3109 110.523 45.8226 110.535 46.3551 110.699ZM46.1462 111.377C45.7831 111.265 45.421 111.255 45.0599 111.347C44.6979 111.441 44.37 111.64 44.076 111.944C43.782 112.248 43.555 112.66 43.395 113.179C43.2342 113.701 43.1897 114.17 43.2615 114.587C43.3325 115.007 43.4913 115.356 43.738 115.636C43.9839 115.918 44.2884 116.115 44.6515 116.227C45.0146 116.339 45.3771 116.348 45.739 116.253C46.1001 116.162 46.4281 115.962 46.7229 115.656C47.0169 115.352 47.2443 114.939 47.4051 114.417C47.5651 113.898 47.6092 113.43 47.5374 113.013C47.4656 112.596 47.3068 112.246 47.0609 111.964C46.8142 111.685 46.5093 111.489 46.1462 111.377Z" fill="black"/>
<path d="M40.8839 108.275L39.7004 114.689L39.0082 114.355L39.7941 110.375C39.9017 109.833 40.0214 109.295 40.1531 108.762C39.989 108.98 39.8198 109.195 39.6455 109.408C39.47 109.623 39.2926 109.836 39.1133 110.047L36.4751 113.134L35.684 112.753L36.4585 108.767C36.5098 108.498 36.565 108.231 36.6239 107.966C36.6791 107.702 36.7374 107.438 36.7989 107.174C36.6335 107.388 36.4661 107.599 36.2968 107.808C36.1238 108.018 35.9495 108.228 35.7739 108.437L33.1585 111.536L32.4587 111.198L36.7382 106.277L37.5369 106.662L36.7722 110.793C36.7315 111.014 36.6863 111.235 36.6368 111.454C36.5872 111.674 36.537 111.892 36.4861 112.108C36.6207 111.932 36.7584 111.757 36.8992 111.581C37.04 111.405 37.1841 111.232 37.3313 111.063L40.0776 107.887L40.8839 108.275Z" fill="black"/>
<path d="M35.5515 105.008L32.0097 110.207L31.2878 109.714L31.4521 104.868C31.4582 104.729 31.4688 104.534 31.4839 104.282C31.499 104.03 31.5168 103.776 31.5374 103.521C31.4207 103.707 31.2982 103.899 31.1697 104.098C31.0389 104.295 30.9442 104.437 30.8856 104.523L28.5989 107.879L27.9711 107.451L31.5129 102.252L32.2418 102.749L32.097 107.056C32.093 107.217 32.0835 107.461 32.0684 107.788C32.0495 108.116 32.0268 108.499 32.0005 108.938C32.2091 108.607 32.3872 108.328 32.5347 108.101C32.6805 107.877 32.7923 107.708 32.87 107.594L34.9237 104.579L35.5515 105.008Z" fill="black"/>
<path d="M22.3819 91.7867L22.307 92.4516L21.0588 92.3079C20.8097 92.2799 20.5532 92.2469 20.2891 92.2092C20.0229 92.1732 19.7648 92.1361 19.5148 92.0979C19.5999 92.1956 19.685 92.2934 19.7701 92.3912C19.853 92.4907 19.9348 92.591 20.0155 92.6923L22.715 96.0803L22.187 96.5017L19.4875 93.1137C19.4068 93.0125 19.3283 92.9094 19.252 92.8047C19.1735 92.7016 19.0961 92.5977 19.0199 92.493C19.0014 92.7454 18.9812 93.0046 18.9593 93.2706C18.9351 93.5384 18.909 93.797 18.8809 94.0463L18.7431 95.2961L18.0788 95.2213L18.5149 91.351L22.3819 91.7867Z" fill="black"/>
<path d="M16.866 79.9529C17.0427 80.4037 17.1159 80.8255 17.0856 81.2185C17.0526 81.6125 16.9236 81.958 16.6984 82.2551C16.4733 82.5522 16.1577 82.7805 15.7516 82.94L15.468 82.2168C15.8872 82.0521 16.1638 81.7938 16.2978 81.4417C16.4309 81.087 16.4054 80.6752 16.2215 80.2061C16.054 79.779 15.8269 79.4735 15.5402 79.2898C15.2524 79.1034 14.9513 79.072 14.637 79.1955C14.3933 79.2912 14.2299 79.4567 14.1468 79.6919C14.0637 79.9272 14.0525 80.2764 14.1131 80.7394L14.2094 81.4591C14.297 82.1142 14.2696 82.6225 14.1271 82.9839C13.9846 83.3453 13.7142 83.6042 13.316 83.7607C12.978 83.8934 12.6522 83.9261 12.3386 83.8588C12.0213 83.7899 11.7337 83.6307 11.4756 83.3813C11.2175 83.1318 11.0089 82.804 10.8496 82.3978C10.6102 81.7873 10.5833 81.2369 10.769 80.7466C10.951 80.2547 11.3206 79.8903 11.8777 79.6533L12.1521 80.353C11.7935 80.518 11.558 80.7617 11.4456 81.0841C11.3305 81.4075 11.3511 81.7684 11.5073 82.1667C11.6563 82.5467 11.8716 82.822 12.1532 82.9926C12.4311 83.1617 12.7155 83.1891 13.0063 83.0749C13.2342 82.9853 13.3853 82.8232 13.4595 82.5884C13.5301 82.352 13.5358 82.0004 13.4768 81.5337L13.3813 80.8046C13.2988 80.1778 13.3338 79.6771 13.4863 79.3027C13.6388 78.9283 13.9194 78.6608 14.3281 78.5003C14.666 78.3675 14.9983 78.3398 15.325 78.4172C15.6506 78.4919 15.9481 78.6608 16.2176 78.9239C16.4834 79.1854 16.6995 79.5284 16.866 79.9529Z" fill="black"/>
<path d="M14.9194 72.1856C15.0483 72.7509 15.0268 73.277 14.8549 73.7638C14.6802 74.2512 14.3828 74.6685 13.9625 75.0157C13.5389 75.3608 13.0197 75.6035 12.405 75.744C11.7848 75.8856 11.2105 75.8927 10.6819 75.7651C10.1506 75.6382 9.70204 75.3927 9.33611 75.0288C8.96681 74.6627 8.7177 74.197 8.58878 73.6317C8.49115 73.2036 8.48703 72.7931 8.57643 72.4002C8.66309 72.008 8.83592 71.6581 9.09492 71.3506C9.35056 71.041 9.68396 70.8003 10.0951 70.6284L10.2679 71.3858C9.84312 71.5868 9.54767 71.8737 9.38153 72.2466C9.21203 72.6174 9.17828 73.0264 9.28029 73.4737C9.37855 73.9046 9.569 74.2523 9.85164 74.5169C10.1315 74.7821 10.4775 74.9572 10.8895 75.0421C11.2987 75.1276 11.7476 75.1146 12.236 75.003C12.7217 74.892 13.1304 74.7092 13.4621 74.4544C13.7937 74.1996 14.0295 73.8917 14.1695 73.5306C14.3067 73.1701 14.3261 72.7744 14.2279 72.3435C14.1271 71.9017 13.9211 71.5489 13.6097 71.2851C13.2984 71.0213 12.9086 70.888 12.4403 70.8853L12.2685 70.1319C12.7107 70.1089 13.1138 70.1799 13.4777 70.3451C13.8416 70.5103 14.1493 70.7518 14.4008 71.0697C14.6489 71.3855 14.8218 71.7575 14.9194 72.1856Z" fill="black"/>
<path d="M14.3793 67.4513L8.10589 67.9218L7.93156 65.5935C7.88259 64.9395 8.01503 64.4088 8.32889 64.0013C8.63973 63.5913 9.08847 63.3643 9.67511 63.3203C10.1214 63.2868 10.508 63.3792 10.8348 63.5975C11.1614 63.8129 11.4032 64.1208 11.5602 64.5211L14.0398 62.9167L14.106 63.8009L11.7419 65.3077C11.7434 65.3274 11.7449 65.347 11.7463 65.3667L11.8595 66.8782L14.3226 66.6934L14.3793 67.4513ZM11.1859 66.9287L11.0695 65.3751C11.0369 64.94 10.9019 64.6072 10.6645 64.3766C10.4241 64.1434 10.113 64.0411 9.73123 64.0698C9.34949 64.0984 9.05861 64.2472 8.85859 64.5163C8.65835 64.7825 8.57453 65.1332 8.6071 65.5682L8.7228 67.1134L11.1859 66.9287Z" fill="black"/>
<path d="M14.7482 57.4261C14.7068 57.9791 14.5311 58.4599 14.221 58.8685C13.911 59.2771 13.504 59.5853 13.0001 59.7931C12.4935 60.0007 11.9271 60.081 11.3012 60.034C10.6697 59.9867 10.1202 59.8227 9.65292 59.542C9.18281 59.2612 8.82489 58.8956 8.57916 58.4453C8.33343 57.995 8.23127 57.4934 8.27268 56.9404C8.31429 56.3847 8.49001 55.9039 8.79984 55.4981C9.10988 55.0895 9.51824 54.7814 10.0249 54.5738C10.5288 54.366 11.0965 54.2858 11.7281 54.3332C12.354 54.3801 12.902 54.544 13.3721 54.8248C13.8395 55.1055 14.196 55.4709 14.4417 55.9212C14.6876 56.3687 14.7898 56.8704 14.7482 57.4261ZM14.0408 57.3731C14.0692 56.9941 13.9984 56.6388 13.8285 56.3071C13.6558 55.9752 13.3885 55.6997 13.0267 55.4806C12.6648 55.2615 12.2131 55.1317 11.6713 55.091C11.1268 55.0502 10.6593 55.1111 10.2689 55.2738C9.87567 55.4362 9.57035 55.6688 9.35292 55.9714C9.13269 56.2739 9.00839 56.6146 8.98001 56.9935C8.95164 57.3724 9.02382 57.7279 9.19655 58.0598C9.36648 58.3915 9.63376 58.667 9.9984 58.8863C10.3602 59.1054 10.8134 59.2353 11.358 59.2762C11.8997 59.3168 12.3658 59.2558 12.7562 59.0931C13.1466 58.9305 13.4519 58.6979 13.6721 58.3955C13.8896 58.0928 14.0125 57.752 14.0408 57.3731Z" fill="black"/>
<path d="M15.6296 52.6921L9.49652 51.2911L9.6655 50.5501L15.14 51.8007L15.814 48.845L16.4726 48.9955L15.6296 52.6921Z" fill="black"/>
<path d="M17.8857 45.6167L12.0302 43.3166L12.3077 42.6091L17.5344 44.6622L18.6411 41.8399L19.2699 42.0869L17.8857 45.6167Z" fill="black"/>
<path d="M26.6199 31.3418L25.4096 32.8608L20.4927 28.9364L21.7556 27.3514C22.1362 26.8737 22.5604 26.5423 23.0281 26.3574C23.4975 26.1702 23.9887 26.1319 24.5017 26.2425C25.0125 26.3512 25.522 26.6084 26.0301 27.014C26.5427 27.4231 26.9102 27.8676 27.1324 28.3476C27.3525 28.8257 27.4212 29.3199 27.3385 29.8302C27.2576 30.3382 27.0181 30.8421 26.6199 31.3418ZM25.3552 31.845L26.0603 30.96C26.548 30.348 26.7366 29.7567 26.6263 29.1861C26.5137 28.6136 26.1571 28.0877 25.5565 27.6084C24.9626 27.1343 24.3782 26.9056 23.8035 26.9223C23.2305 26.9367 22.7133 27.2334 22.252 27.8124L21.4943 28.7634L25.3552 31.845Z" fill="black"/>
<path d="M32.4936 25.7612C32.0872 26.1385 31.6316 26.3715 31.1265 26.4602C30.6215 26.5489 30.1138 26.498 29.6032 26.3076C29.0908 26.115 28.6212 25.7886 28.1945 25.3283C27.7639 24.8639 27.4728 24.3698 27.3212 23.846C27.1677 23.3202 27.154 22.8086 27.2801 22.3112C27.4062 21.8138 27.6724 21.3764 28.0788 20.9991C28.4871 20.6198 28.9428 20.3868 29.4458 20.3C29.9508 20.2113 30.4595 20.2632 30.972 20.4558C31.4825 20.6462 31.953 20.9737 32.3836 21.4381C32.8103 21.8984 33.1005 22.3915 33.254 22.9173C33.4056 23.441 33.4184 23.9516 33.2922 24.449C33.1682 24.9445 32.902 25.3819 32.4936 25.7612ZM32.0113 25.241C32.2898 24.9824 32.4795 24.6737 32.5805 24.3148C32.6797 23.9539 32.6711 23.57 32.5549 23.1631C32.4388 22.7563 32.196 22.3537 31.8267 21.9553C31.4554 21.5548 31.0715 21.2814 30.6748 21.1351C30.2762 20.9867 29.8943 20.9494 29.5292 21.0235C29.1622 21.0954 28.8394 21.2607 28.561 21.5193C28.2826 21.7778 28.0938 22.0876 27.9947 22.4485C27.8936 22.8074 27.9022 23.1913 28.0202 23.6002C28.1364 24.007 28.3801 24.4107 28.7514 24.8111C29.1207 25.2095 29.5037 25.4819 29.9004 25.6283C30.2971 25.7746 30.679 25.8118 31.046 25.7399C31.4111 25.6659 31.7329 25.4996 32.0113 25.241Z" fill="black"/>
<path d="M37.3257 22.2291L32.368 17.996L33.0027 17.5629L36.0539 20.2346C36.4689 20.5988 36.8742 20.9714 37.2699 21.3522C37.1635 21.1011 37.0618 20.8468 36.9647 20.5893C36.8661 20.3295 36.7706 20.0692 36.6781 19.8086L35.3254 15.978L36.0508 15.483L39.1125 18.1475C39.3196 18.3265 39.5232 18.5079 39.7233 18.6916C39.9241 18.8715 40.1234 19.0541 40.3212 19.2395C40.2188 18.9891 40.1194 18.7382 40.0232 18.487C39.9277 18.2318 39.8334 17.9759 39.7402 17.7191L38.3666 13.9028L39.0083 13.4649L41.1272 19.6351L40.3948 20.1349L37.2026 17.4061C37.0317 17.2603 36.8636 17.111 36.6981 16.9581C36.5326 16.8052 36.3691 16.6527 36.2076 16.5005C36.2924 16.705 36.3757 16.9123 36.4575 17.1223C36.5392 17.3323 36.6167 17.5435 36.6899 17.756L38.0651 21.7246L37.3257 22.2291Z" fill="black"/>
<path d="M42.8189 19.2394L40.0912 13.5705L40.8786 13.191L44.9896 15.7559C45.1068 15.8307 45.2707 15.9376 45.4813 16.0767C45.6919 16.2158 45.9025 16.358 46.113 16.5034C46.0102 16.3092 45.905 16.1068 45.7974 15.8962C45.6924 15.6844 45.6173 15.5315 45.5721 15.4377L43.811 11.7776L44.4956 11.4477L47.2233 17.1166L46.4284 17.4997L42.7737 15.221C42.6365 15.1372 42.4302 15.007 42.1547 14.8304C41.8805 14.6501 41.5602 14.4389 41.1938 14.1968C41.3761 14.5432 41.5284 14.837 41.6506 15.078C41.7717 15.3165 41.8621 15.4979 41.9219 15.6222L43.5036 18.9094L42.8189 19.2394Z" fill="black"/>
<path d="M60.8456 14.4315L60.3076 14.0344L61.0565 13.0247C61.2054 12.8229 61.3623 12.6171 61.5271 12.4072C61.6915 12.1945 61.8527 11.9894 62.0108 11.7919C61.8836 11.8168 61.7565 11.8417 61.6293 11.8666C61.5016 11.8887 61.3738 11.9094 61.2458 11.9287L56.9623 12.5749L56.8617 11.9069L61.1452 11.2607C61.2732 11.2414 61.4017 11.2248 61.5305 11.2111C61.659 11.1946 61.7877 11.1794 61.9165 11.1657C61.7073 11.0236 61.493 10.8766 61.2737 10.7246C61.054 10.5699 60.8432 10.4181 60.6415 10.2692L59.6285 9.5253L60.0257 8.98715L63.1577 11.2987L60.8456 14.4315Z" fill="black"/>
</svg>
