<svg width="64" height="69" viewBox="0 0 64 69" fill="none" xmlns="http://www.w3.org/2000/svg">
<path d="M41.8004 57.1835L41.0319 59.8696C40.3469 62.2636 37.2816 63.0652 35.5124 61.313L33.5274 59.347C31.9877 57.8221 31.218 57.06 30.2299 56.7852C29.2418 56.5107 28.1572 56.7745 25.988 57.3022C22.7855 58.0808 20.7349 58.4084 18.8763 58.1524C15.4279 57.6772 12.3095 55.8519 10.2071 53.0774C8.63027 50.9968 7.85661 48.0384 6.30936 42.1218L5.64522 39.5822C3.47119 31.269 2.38417 27.1124 3.45682 23.5696C4.05702 21.5872 5.11787 19.775 6.55265 18.2811C9.11676 15.6114 13.2734 14.5244 21.5866 12.3504L29.2053 10.358C37.5185 8.18399 41.675 7.09699 45.218 8.16961C47.2004 8.76981 49.0125 9.83069 50.5064 11.2655C53.1761 13.8296 54.2631 17.9862 56.4371 26.2994L57.1013 28.839C58.6485 34.7556 59.4222 37.7139 59.0658 40.3001C58.5907 43.7487 56.7653 46.8669 53.9908 48.9694C52.4956 50.1026 50.5472 50.8207 47.3734 51.7096C45.2235 52.3115 44.1487 52.6123 43.4216 53.3354C42.6944 54.0584 42.3962 55.1002 41.8004 57.1835Z" fill="white"/>
<circle cx="46.2876" cy="9.75" r="8.5" fill="#7ea6c9" stroke="#1c2733" stroke-width="2.5"/>
</svg>
